<?xml version="1.0" encoding="utf-8"?>
<!-- Generator: Adobe Illustrator 22.0.1, SVG Export Plug-In . SVG Version: 6.00 Build 0)  -->
<svg version="1.1" id="Layer_1" xmlns="http://www.w3.org/2000/svg" xmlns:xlink="http://www.w3.org/1999/xlink" x="0px" y="0px"
	 viewBox="0 0 5715.7 13890.4" style="enable-background:new 0 0 5715.7 13890.4;" xml:space="preserve">
<style type="text/css">
	.st0{fill:none;}
	.st1{fill:#48B549;}
	.st2{fill:#3A4FA0;}
	.st3{fill:#545EA9;}
	.st4{fill:#FAF28D;}
	.st5{fill:#F4EB25;}
	.st6{fill:#A46053;}
	.st7{fill:#A43324;}
	.st8{fill:#179B49;}
	.st9{fill:url(#SVGID_1_);}
</style>
<pattern  x="2997.5" y="6416" width="821.9" height="879.1" patternUnits="userSpaceOnUse" id="SVGID_26_" viewBox="0 -879.1 821.9 879.1" style="overflow:visible;">
	<g>
		<rect y="-879.1" class="st0" width="821.9" height="879.1"/>
		<g>
			<rect y="-879.1" class="st0" width="821.9" height="879.1"/>
			<g>
				<rect y="-879.1" class="st0" width="821.9" height="879.1"/>
				<rect y="-879.1" class="st1" width="205.5" height="67.6"/>
				<rect x="205.5" y="-879.1" class="st2" width="205.5" height="67.6"/>
				<rect x="410.9" y="-879.1" class="st3" width="205.5" height="67.6"/>
				<rect x="616.4" y="-879.1" class="st1" width="205.5" height="67.6"/>
				<rect y="-811.5" class="st4" width="205.5" height="67.6"/>
				<rect x="205.5" y="-811.5" class="st5" width="205.5" height="67.6"/>
				<rect x="410.9" y="-811.5" class="st4" width="205.5" height="67.6"/>
				<rect x="616.4" y="-811.5" class="st6" width="205.5" height="67.6"/>
				<rect y="-743.8" class="st6" width="205.5" height="67.6"/>
				<rect x="205.5" y="-743.8" class="st7" width="205.5" height="67.6"/>
				<rect x="410.9" y="-743.8" class="st1" width="205.5" height="67.6"/>
				<rect x="616.4" y="-743.8" class="st1" width="205.5" height="67.6"/>
				<rect y="-676.2" class="st1" width="205.5" height="67.6"/>
				<rect x="205.5" y="-676.2" class="st6" width="205.5" height="67.6"/>
				<rect x="410.9" y="-676.2" class="st5" width="205.5" height="67.6"/>
				<rect x="616.4" y="-676.2" class="st2" width="205.5" height="67.6"/>
				<rect y="-608.6" class="st3" width="205.5" height="67.6"/>
				<rect x="205.5" y="-608.6" class="st5" width="205.5" height="67.6"/>
				<rect x="410.9" y="-608.6" class="st4" width="205.5" height="67.6"/>
				<rect x="616.4" y="-608.6" class="st5" width="205.5" height="67.6"/>
				<rect y="-541" class="st7" width="205.5" height="67.6"/>
				<rect x="205.5" y="-541" class="st2" width="205.5" height="67.6"/>
				<rect x="410.9" y="-541" class="st7" width="205.5" height="67.6"/>
				<rect x="616.4" y="-541" class="st4" width="205.5" height="67.6"/>
				<rect y="-473.3" class="st3" width="205.5" height="67.6"/>
				<rect x="205.5" y="-473.3" class="st5" width="205.5" height="67.6"/>
				<rect x="410.9" y="-473.3" class="st1" width="205.5" height="67.6"/>
				<rect x="616.4" y="-473.3" class="st2" width="205.5" height="67.6"/>
				<rect y="-405.7" class="st6" width="205.5" height="67.6"/>
				<rect x="205.5" y="-405.7" class="st1" width="205.5" height="67.6"/>
				<rect x="410.9" y="-405.7" class="st6" width="205.5" height="67.6"/>
				<rect x="616.4" y="-405.7" class="st7" width="205.5" height="67.6"/>
				<rect y="-338.1" class="st2" width="205.5" height="67.6"/>
				<rect x="205.5" y="-338.1" class="st3" width="205.5" height="67.6"/>
				<rect x="410.9" y="-338.1" class="st2" width="205.5" height="67.6"/>
				<rect x="616.4" y="-338.1" class="st3" width="205.5" height="67.6"/>
				<rect y="-270.5" class="st1" width="205.5" height="67.6"/>
				<rect x="205.5" y="-270.5" class="st5" width="205.5" height="67.6"/>
				<rect x="410.9" y="-270.5" class="st8" width="205.5" height="67.6"/>
				<rect x="616.4" y="-270.5" class="st1" width="205.5" height="67.6"/>
				<rect y="-202.9" class="st5" width="205.5" height="67.6"/>
				<rect x="205.5" y="-202.9" class="st8" width="205.5" height="67.6"/>
				<rect x="410.9" y="-202.9" class="st7" width="205.5" height="67.6"/>
				<rect x="616.4" y="-202.9" class="st8" width="205.5" height="67.6"/>
				<rect y="-135.2" class="st3" width="205.5" height="67.6"/>
				<rect x="205.5" y="-135.2" class="st5" width="205.5" height="67.6"/>
				<rect x="410.9" y="-135.2" class="st4" width="205.5" height="67.6"/>
				<rect x="616.4" y="-135.2" class="st7" width="205.5" height="67.6"/>
				<rect y="-67.6" class="st2" width="205.5" height="67.6"/>
				<rect x="205.5" y="-67.6" class="st7" width="205.5" height="67.6"/>
				<rect x="410.9" y="-67.6" class="st6" width="205.5" height="67.6"/>
				<rect x="616.4" y="-67.6" class="st1" width="205.5" height="67.6"/>
			</g>
		</g>
	</g>
</pattern>
<pattern  id="SVGID_1_" xlink:href="#SVGID_26_" patternTransform="matrix(6.9861 0 0 7.1582 79404.9062 119691.3438)">
</pattern>
<rect x="0" y="62.7" class="st9" width="5773.6" height="13821.8"/>
</svg>
