<?xml version="1.0" encoding="utf-8"?>
<!-- Generator: Adobe Illustrator 22.0.1, SVG Export Plug-In . SVG Version: 6.00 Build 0)  -->
<svg version="1.1" id="Layer_1" xmlns="http://www.w3.org/2000/svg" xmlns:xlink="http://www.w3.org/1999/xlink" x="0px" y="0px"
	 viewBox="0 0 1833 2448" style="enable-background:new 0 0 1833 2448;" xml:space="preserve">
<style type="text/css">
	.st0{fill:none;}
	.st1{opacity:0.17;fill:#033A57;}
	.st2{fill:#075E8A;}
	.st3{fill:#027BB9;}
	.st4{fill:#0071A9;}
	.st5{opacity:0.41;fill:#74C1E8;}
	.st6{fill:#0C7EBD;}
	.st7{fill:url(#SVGID_1_);}
	.st8{fill:#EBEBEC;}
	.st9{fill:#FFFFFF;}
	.st10{fill:#E7E8E8;}
	.st11{fill:#DEDFE0;}
	.st12{fill:#DEE0E0;}
</style>
<pattern  x="4150.6" width="110" height="110" patternUnits="userSpaceOnUse" id="New_Pattern" viewBox="0 -110 110 110" style="overflow:visible;">
	<g>
		<rect y="-110" class="st0" width="110" height="110"/>
		<circle class="st1" cx="58" cy="-55" r="37.3"/>
		<circle class="st2" cx="49.7" cy="-53.5" r="35"/>
		<circle class="st3" cx="49.7" cy="-57" r="35"/>
		<path class="st4" d="M84.7-57c0,19.3-15.7,35-35,35c-1.1,0-2.3-0.1-3.4-0.2C64-23.9,77.9-38.8,77.9-57S64-90.1,46.3-91.8
			c1.1-0.1,2.3-0.2,3.4-0.2C69-92,84.7-76.3,84.7-57z"/>
		<path class="st5" d="M74.5-38.7C69.2-30.2,58.8-24.5,48-24.5c-16.5,0-30-13.4-30-30c0-6.9,1.3-13.2,5.2-18.3
			c-2.8,4.6-3.5,10-3.5,15.7c0,16.5,13.4,30,30,30C59.5-27,69-31.6,74.5-38.7z"/>
	</g>
</pattern>
<g>
	<rect x="0" class="st6" width="1833" height="2448"/>
	<pattern  id="SVGID_1_" xlink:href="#New_Pattern" patternTransform="matrix(1 0 0 1 -2691.5605 0)">
	</pattern>
	<rect x="0" class="st7" width="1833" height="2448"/>
</g>
<g>
	<path class="st8" d="M723.3,371v77.8c0,10.4-7.9,18.9-17.5,18.9H151.7c-9.6,0-17.5-12.7-17.5-23.1v-26.8c0-10.4,7.9-18.9,17.5-18.9
		h29.2c3.4,0,6.2-3,6.2-6.7c0-5.2,2-9.9,5.1-13.3c3.2-3.4,7.5-5.5,12.3-5.5h11c3.4,0,6.2-3,6.2-6.7l3.3-66.5
		c0-6.7,5.1-12.2,11.3-12.2l78.7-4.4c3.4,0,6.2-3,6.2-6.7v-25.2c0-10.4,7.9-18.9,17.5-18.9h26.1c22.7-26.9,61.7-46.2,106-46.2
		c44.3,0,84.2,25.8,106.9,52.7l-5.4,67.4c9.6,0,30.1,9.9,30.1,20.3l13.9-20.3c0,3.7,2.8,6.7,6.2,6.7l22.1,27.2c9.6,0,22-18.8,22-8.4
		v13c0,3.7,2.8,6.7,6.2,6.7l25.4,39.9C707.8,392.1,723.3,360.6,723.3,371z"/>
	<path class="st9" d="M738.4,377.3v72.1c0,9.6-7.9,17.5-17.5,17.5H166.8c-9.6,0-17.5-7.9-17.5-17.5v-24.8c0-9.6,7.9-17.5,17.5-17.5
		h27.5c3.4,0,6.2-2.8,6.2-6.2c0-4.8,2-9.2,5.1-12.3c3.2-3.2,7.5-5.1,12.3-5.1h11c3.4,0,6.2-2.8,6.2-6.2l5-65.1
		c0-6.2,5.1-11.3,11.3-11.3l78.7-4.4c3.4,0,6.2-2.8,6.2-6.2v-23.3c0-9.6,7.9-17.5,17.5-17.5h26.1c22.7-24.9,61.7-42.8,106-42.8
		c44.3,0,83.4,17.9,106,42.8h22c9.6,0,17.5,7.9,17.5,17.5v51c0,3.4,2.8,6.2,6.2,6.2h26.6c9.6,0,17.5,7.9,17.5,17.5v12
		c0,3.4,2.8,6.2,6.2,6.2h33C730.5,359.8,738.4,367.7,738.4,377.3z"/>
	<g>
		<g>
			<g>
				<g>
					<path class="st10" d="M709.5,386.3c0.4,7.9,0.8,15.7,1.2,23.6l0.5,11.8l0.2,5.9c0.1,2,0.1,4.1-0.2,6.2
						c-0.2,2.1-0.7,4.4-1.8,6.5c-1,2.1-2.5,4-4.2,5.6c-3.5,3.1-7.8,4.8-11.9,5.8c-4.2,1-8.3,1.3-12.4,1.5l-11.8,0.2
						c-31.4,0.6-62.8,0.7-94.3,0.6c-31.4-0.2-62.8-0.6-94.3-1.5c-31.4-0.9-62.8-2.1-94.2-4.2l0-0.4c31.4-1.8,62.9-2.7,94.3-3.3
						c31.4-0.6,62.8-0.7,94.3-0.6c31.4,0.2,62.8,0.6,94.3,1.6l11.7,0.3c3.8,0,7.5-0.1,11.1-0.7c3.5-0.6,6.9-1.8,9.4-3.8
						c1.2-1,2.3-2.2,3.1-3.6c0.8-1.4,1.3-3,1.6-4.7c0.3-1.7,0.5-3.6,0.6-5.5l0.3-5.9l0.6-11.8c0.4-7.9,0.9-15.7,1.5-23.6
						L709.5,386.3z"/>
				</g>
			</g>
		</g>
	</g>
	<g>
		<g>
			<g>
				<g>
					<path class="st10" d="M395.3,265.7c10.7-12.1,24.4-21.8,39.3-28.5c15-6.8,31.4-10.7,48-11.4c16.6-0.6,33.2,2,48.7,7.7
						c15.5,5.6,29.8,14.2,41.4,25.5l-0.3,0.3c-13.9-8.1-28.5-14.3-43.5-18.3c-15.1-4-30.5-5.8-45.9-5.2c-15.4,0.6-30.7,3.6-45.4,8.7
						c-14.7,5.1-28.7,12.4-42,21.5L395.3,265.7z"/>
				</g>
			</g>
		</g>
	</g>
	<g>
		<g>
			<g>
				<g>
					<path class="st10" d="M255.6,377.5c-2-9.3-3-18.6-3.8-28c-0.4-4.7-0.7-9.3-0.8-14c-0.1-2.3-0.2-4.7-0.2-7l0-2.3
						c0-1.2,0-2.3,0.3-3.3c0.5-2,2.1-3.8,4.1-4.6c1-0.4,2.1-0.6,3.3-0.7l2.4-0.2l3.5-0.3c2.3-0.2,4.6-0.4,7-0.5
						c4.7-0.3,9.3-0.5,14-0.6c9.3-0.3,18.7-0.2,28.2,0.8l0,0.4c-9.1,3-18.2,5-27.4,6.6c-4.6,0.9-9.2,1.6-13.8,2.3
						c-2.3,0.3-4.6,0.6-6.9,0.9l-3.5,0.4l-0.9,0.1l-0.2,0c0,0,0,0,0,0v0l0,0c0,0,0,0,0,0c0,0.1,0-0.5,0,1.2c0,2.3-0.1,4.7-0.2,7
						c-0.2,4.7-0.4,9.3-0.8,14c-0.7,9.3-1.7,18.6-3.7,28L255.6,377.5z"/>
				</g>
			</g>
		</g>
	</g>
</g>
<g>
	<path class="st11" d="M1730.4,241.3v94.4c0,8.4-6.5,15.3-14.4,15.3h-370.5c-0.4,0-0.7,0-1.1-0.1h-156.3c-7.9,0-14.4-6.9-14.4-15.3
		v-31.9c0-8.4,16,2,23.9,2l34.8-17.2v-47.1c0-8.4,30.5,14.6,38.4,14.6l23.8-29.8v-58.7c0-8.4,14.8,12.3,22.7,12.3L1331,152v-18.6
		c0-8.4,20.2,8.1,28.1,8.1l-7.4-23.4c14.3-24.4,60.6-42.3,115.5-42.3c54.9,0,101.2,17.9,115.5,42.3h8.7c7.9,0,14.4,6.9,14.4,15.3
		V152h55.3c7.9,0,14.4,6.9,14.4,15.3l5,50.3l35.3,0.8C1723.9,218.5,1730.4,232.9,1730.4,241.3z"/>
	<path class="st9" d="M1710.3,247.3v89.2c0,7.9-6.5,14.4-14.4,14.4h-370.5c-0.4,0-0.7,0-1.1,0H1168c-7.9,0-14.4-6.5-14.4-14.4v-30.1
		c0-7.9,6.5-14.4,14.4-14.4h44.3v-44.5c0-7.9,6.5-14.4,14.4-14.4h47.8v-55.4c0-7.9,6.5-14.4,14.4-14.4h22v-17.6
		c0-7.9,6.5-14.4,14.4-14.4h6.2c14.3-23.1,60.6-40,115.5-40c54.9,0,101.2,16.9,115.5,40h8.7c7.9,0,14.4,6.5,14.4,14.4V163h55.3
		c7.9,0,14.4,6.5,14.4,14.4v55.4h40.3C1703.8,232.9,1710.3,239.4,1710.3,247.3z"/>
	<g>
		<g>
			<g>
				<g>
					<path class="st12" d="M1351.4,142.8c12.4-10,26.3-18.2,41.2-24.3c14.9-6.2,30.8-10.2,47-11.5c16.2-1.3,32.8,0.3,48.3,5
						c15.5,4.6,30.3,12.4,41.8,23.4l-0.2,0.3c-13.9-7.7-28.5-13-43.5-16.1c-15-3-30.4-3.9-45.6-2.7c-15.2,1.2-30.3,4.4-45.1,8.9
						c-14.8,4.6-29.2,10.6-43.6,17.2L1351.4,142.8z"/>
				</g>
			</g>
		</g>
	</g>
	<g>
		<g>
			<g>
				<g>
					<path class="st12" d="M1673.2,263.2c-1.1,2.8-1.7,5.8-2,8.8c-0.3,3-0.3,6-0.1,9c0.1,3,0.3,6,0.5,9.1c0.2,3.1,0.2,6.3-0.1,9.4
						c-0.3,3.2-0.8,6.4-1.9,9.6c-1,3.2-2.5,6.3-4.8,9c-2.3,2.7-5.3,5-8.6,6.4c-3.3,1.4-6.6,2.1-9.8,2.5c-3.2,0.4-6.3,0.6-9.4,0.8
						l-9.1,0.6c-6.1,0.4-12.2,0.7-18.3,1c-12.2,0.6-24.4,1-36.6,1.4c-24.4,0.6-48.8,0.8-73.2,0.2c-24.4-0.5-48.8-1.5-73.2-3.7l0-0.4
						c24.4-1.8,48.8-2.9,73.1-3.8c24.4-1,48.7-1.7,73-2.3l36.5-0.9l18.3-0.3l9.1-0.1c3.1,0,6.1,0,8.9-0.2c2.8-0.2,5.5-0.6,7.9-1.5
						c2.4-0.8,4.5-2.2,6.3-4c3.6-3.7,5.6-9.2,6.6-14.9c1.1-5.7,1.1-11.8,1.6-18c0.3-3.1,0.7-6.2,1.4-9.2c0.7-3,1.8-6,3.4-8.7
						L1673.2,263.2z"/>
				</g>
			</g>
		</g>
	</g>
</g>
</svg>
