<?xml version="1.0" encoding="utf-8"?>
<!-- Generator: Adobe Illustrator 22.0.1, SVG Export Plug-In . SVG Version: 6.00 Build 0)  -->
<svg version="1.1" id="Layer_1" xmlns="http://www.w3.org/2000/svg" xmlns:xlink="http://www.w3.org/1999/xlink" x="0px" y="0px"
	 viewBox="0 0 1406.4 2788.6" style="enable-background:new 0 0 1406.4 2788.6;" xml:space="preserve">
<style type="text/css">
	.st0{fill:none;}
	.st1{fill:#A33122;}
	.st2{fill:#A35E51;}
	.st3{fill:#FAF18A;}
	.st4{fill:#45B549;}
	.st5{fill:#384DA0;}
	.st6{fill:#535BA7;}
	.st7{fill:#109B49;}
	.st8{fill:#F7EB24;}
	.st9{fill:url(#SVGID_1_);}
</style>
<pattern  x="326.2" y="2464.7" width="2747.6" height="1469.5" patternUnits="userSpaceOnUse" id="New_Pattern_5" viewBox="0 -1469.5 2747.6 1469.5" style="overflow:visible;">
	<g>
		<rect y="-1469.5" class="st0" width="2747.6" height="1469.5"/>
		<rect x="0" y="-1469.5" class="st1" width="343.5" height="113"/>
		<rect x="343.5" y="-1469.5" class="st2" width="343.5" height="113"/>
		<rect x="686.9" y="-1469.5" class="st3" width="343.5" height="113"/>
		<rect x="1030.4" y="-1469.5" class="st4" width="343.5" height="113"/>
		<rect x="1373.8" y="-1469.5" class="st5" width="343.5" height="113"/>
		<rect x="1717.3" y="-1469.5" class="st6" width="343.5" height="113"/>
		<rect x="2060.7" y="-1469.5" class="st4" width="343.5" height="113"/>
		<rect x="2404.2" y="-1469.5" class="st7" width="343.5" height="113"/>
		<rect x="0" y="-1356.4" class="st7" width="343.5" height="113"/>
		<rect x="343.5" y="-1356.4" class="st3" width="343.5" height="113"/>
		<rect x="686.9" y="-1356.4" class="st5" width="343.5" height="113"/>
		<rect x="1030.4" y="-1356.4" class="st3" width="343.5" height="113"/>
		<rect x="1373.8" y="-1356.4" class="st8" width="343.5" height="113"/>
		<rect x="1717.3" y="-1356.4" class="st3" width="343.5" height="113"/>
		<rect x="2060.7" y="-1356.4" class="st2" width="343.5" height="113"/>
		<rect x="2404.2" y="-1356.4" class="st5" width="343.5" height="113"/>
		<rect x="0" y="-1243.4" class="st8" width="343.5" height="113"/>
		<rect x="343.5" y="-1243.4" class="st2" width="343.5" height="113"/>
		<rect x="686.9" y="-1243.4" class="st1" width="343.5" height="113"/>
		<rect x="1030.4" y="-1243.4" class="st2" width="343.5" height="113"/>
		<rect x="1373.8" y="-1243.4" class="st1" width="343.5" height="113"/>
		<rect x="1717.3" y="-1243.4" class="st4" width="343.5" height="113"/>
		<rect x="2060.7" y="-1243.4" class="st4" width="343.5" height="113"/>
		<rect x="2404.2" y="-1243.4" class="st6" width="343.5" height="113"/>
		<rect x="0" y="-1130.4" class="st1" width="343.5" height="113"/>
		<rect x="343.5" y="-1130.4" class="st4" width="343.5" height="113"/>
		<rect x="686.9" y="-1130.4" class="st8" width="343.5" height="113"/>
		<rect x="1030.4" y="-1130.4" class="st4" width="343.5" height="113"/>
		<rect x="1373.8" y="-1130.4" class="st2" width="343.5" height="113"/>
		<rect x="1717.3" y="-1130.4" class="st8" width="343.5" height="113"/>
		<rect x="2060.7" y="-1130.4" class="st5" width="343.5" height="113"/>
		<rect x="2404.2" y="-1130.4" class="st1" width="343.5" height="113"/>
		<rect x="0" y="-1017.3" class="st6" width="343.5" height="113"/>
		<rect x="343.5" y="-1017.3" class="st2" width="343.5" height="113"/>
		<rect x="686.9" y="-1017.3" class="st5" width="343.5" height="113"/>
		<rect x="1030.4" y="-1017.3" class="st6" width="343.5" height="113"/>
		<rect x="1373.8" y="-1017.3" class="st8" width="343.5" height="113"/>
		<rect x="1717.3" y="-1017.3" class="st3" width="343.5" height="113"/>
		<rect x="2060.7" y="-1017.3" class="st8" width="343.5" height="113"/>
		<rect x="2404.2" y="-1017.3" class="st3" width="343.5" height="113"/>
		<rect x="0" y="-904.3" class="st3" width="343.5" height="113"/>
		<rect x="343.5" y="-904.3" class="st6" width="343.5" height="113"/>
		<rect x="686.9" y="-904.3" class="st3" width="343.5" height="113"/>
		<rect x="1030.4" y="-904.3" class="st1" width="343.5" height="113"/>
		<rect x="1373.8" y="-904.3" class="st5" width="343.5" height="113"/>
		<rect x="1717.3" y="-904.3" class="st1" width="343.5" height="113"/>
		<rect x="2060.7" y="-904.3" class="st3" width="343.5" height="113"/>
		<rect x="2404.2" y="-904.3" class="st7" width="343.5" height="113"/>
		<rect x="0" y="-791.2" class="st1" width="343.5" height="113"/>
		<rect x="343.5" y="-791.2" class="st5" width="343.5" height="113"/>
		<rect x="686.9" y="-791.2" class="st2" width="343.5" height="113"/>
		<rect x="1030.4" y="-791.2" class="st6" width="343.5" height="113"/>
		<rect x="1373.8" y="-791.2" class="st8" width="343.5" height="113"/>
		<rect x="1717.3" y="-791.2" class="st4" width="343.5" height="113"/>
		<rect x="2060.7" y="-791.2" class="st5" width="343.5" height="113"/>
		<rect x="2404.2" y="-791.2" class="st6" width="343.5" height="113"/>
		<rect x="0" y="-678.2" class="st2" width="343.5" height="113"/>
		<rect x="343.5" y="-678.2" class="st7" width="343.5" height="113"/>
		<rect x="686.9" y="-678.2" class="st5" width="343.5" height="113"/>
		<rect x="1030.4" y="-678.2" class="st2" width="343.5" height="113"/>
		<rect x="1373.8" y="-678.2" class="st4" width="343.5" height="113"/>
		<rect x="1717.3" y="-678.2" class="st2" width="343.5" height="113"/>
		<rect x="2060.7" y="-678.2" class="st1" width="343.5" height="113"/>
		<rect x="2404.2" y="-678.2" class="st2" width="343.5" height="113"/>
		<rect x="0" y="-565.2" class="st5" width="343.5" height="113"/>
		<rect x="343.5" y="-565.2" class="st3" width="343.5" height="113"/>
		<rect x="686.9" y="-565.2" class="st1" width="343.5" height="113"/>
		<rect x="1030.4" y="-565.2" class="st5" width="343.5" height="113"/>
		<rect x="1373.8" y="-565.2" class="st6" width="343.5" height="113"/>
		<rect x="1717.3" y="-565.2" class="st5" width="343.5" height="113"/>
		<rect x="2060.7" y="-565.2" class="st6" width="343.5" height="113"/>
		<rect x="2404.2" y="-565.2" class="st7" width="343.5" height="113"/>
		<rect x="0" y="-452.1" class="st8" width="343.5" height="113"/>
		<rect x="343.5" y="-452.1" class="st1" width="343.5" height="113"/>
		<rect x="686.9" y="-452.1" class="st5" width="343.5" height="113"/>
		<rect x="1030.4" y="-452.1" class="st4" width="343.5" height="113"/>
		<rect x="1373.8" y="-452.1" class="st8" width="343.5" height="113"/>
		<rect x="1717.3" y="-452.1" class="st7" width="343.5" height="113"/>
		<rect x="2060.7" y="-452.1" class="st4" width="343.5" height="113"/>
		<rect x="2404.2" y="-452.1" class="st1" width="343.5" height="113"/>
		<rect x="0" y="-339.1" class="st5" width="343.5" height="113"/>
		<rect x="343.5" y="-339.1" class="st2" width="343.5" height="113"/>
		<rect x="686.9" y="-339.1" class="st4" width="343.5" height="113"/>
		<rect x="1030.4" y="-339.1" class="st8" width="343.5" height="113"/>
		<rect x="1373.8" y="-339.1" class="st7" width="343.5" height="113"/>
		<rect x="1717.3" y="-339.1" class="st1" width="343.5" height="113"/>
		<rect x="2060.7" y="-339.1" class="st7" width="343.5" height="113"/>
		<rect x="2404.2" y="-339.1" class="st6" width="343.5" height="113"/>
		<rect x="0" y="-226.1" class="st1" width="343.5" height="113"/>
		<rect x="343.5" y="-226.1" class="st8" width="343.5" height="113"/>
		<rect x="686.9" y="-226.1" class="st5" width="343.5" height="113"/>
		<rect x="1030.4" y="-226.1" class="st6" width="343.5" height="113"/>
		<rect x="1373.8" y="-226.1" class="st8" width="343.5" height="113"/>
		<rect x="1717.3" y="-226.1" class="st3" width="343.5" height="113"/>
		<rect x="2060.7" y="-226.1" class="st1" width="343.5" height="113"/>
		<rect x="2404.2" y="-226.1" class="st7" width="343.5" height="113"/>
		<rect x="0" y="-113" class="st4" width="343.5" height="113"/>
		<rect x="343.5" y="-113" class="st2" width="343.5" height="113"/>
		<rect x="686.9" y="-113" class="st7" width="343.5" height="113"/>
		<rect x="1030.4" y="-113" class="st5" width="343.5" height="113"/>
		<rect x="1373.8" y="-113" class="st1" width="343.5" height="113"/>
		<rect x="1717.3" y="-113" class="st2" width="343.5" height="113"/>
		<rect x="2060.7" y="-113" class="st4" width="343.5" height="113"/>
		<rect x="2404.2" y="-113" class="st5" width="343.5" height="113"/>
	</g>
</pattern>
<pattern  id="SVGID_1_" xlink:href="#New_Pattern_5" patternTransform="matrix(1 0 0 1 7 -1255.5394)">
</pattern>
<rect x="-1.9" y="1219.2" class="st9" width="1368.1" height="1577.5"/>
</svg>
