<?xml version="1.0" encoding="utf-8"?>
<!-- Generator: Adobe Illustrator 23.0.0, SVG Export Plug-In . SVG Version: 6.00 Build 0)  -->
<svg version="1.1" id="Layer_1" xmlns="http://www.w3.org/2000/svg" xmlns:xlink="http://www.w3.org/1999/xlink" x="0px" y="0px"
	 viewBox="0 0 216 216" style="enable-background:new 0 0 216 216;" xml:space="preserve">
<style type="text/css">
	.st0{fill:#ED2024;}
	.st1{fill:#A91E22;}
</style>
<g>
	<g>
		<path class="st0" d="M65.58,92.62c-3.03,0-5.49-2.46-5.49-5.49V65.96c0-3.03,2.46-5.49,5.49-5.49h21.16
			c3.03,0,5.49,2.46,5.49,5.49v21.16c0,3.03-2.46,5.49-5.49,5.49H65.58z"/>
		<path class="st1" d="M86.74,62.88c1.7,0,3.08,1.38,3.08,3.08v21.16c0,1.7-1.38,3.08-3.08,3.08H65.58c-1.7,0-3.08-1.38-3.08-3.08
			V65.96c0-1.7,1.38-3.08,3.08-3.08H86.74 M86.74,58.06H65.58c-4.36,0-7.9,3.54-7.9,7.9v21.16c0,4.36,3.54,7.9,7.9,7.9h21.16
			c4.36,0,7.9-3.54,7.9-7.9V65.96C94.64,61.61,91.1,58.06,86.74,58.06L86.74,58.06z"/>
	</g>
	<g>
		<path class="st0" d="M129.66,92.62c-2.99,0-5.42-2.43-5.42-5.42V65.9c0-2.99,2.43-5.42,5.42-5.42h21.29
			c2.99,0,5.42,2.43,5.42,5.42v21.29c0,2.99-2.43,5.42-5.42,5.42H129.66z"/>
		<path class="st1" d="M150.95,62.88c1.66,0,3.01,1.35,3.01,3.01v21.29c0,1.66-1.35,3.01-3.01,3.01h-21.29
			c-1.66,0-3.01-1.35-3.01-3.01V65.9c0-1.66,1.35-3.01,3.01-3.01H150.95 M150.95,58.06h-21.29c-4.32,0-7.84,3.51-7.84,7.84v21.29
			c0,4.32,3.51,7.84,7.84,7.84h21.29c4.32,0,7.84-3.51,7.84-7.84V65.9C158.79,61.58,155.27,58.06,150.95,58.06L150.95,58.06z"/>
	</g>
	<g>
		<rect x="41.27" y="82.34" class="st0" width="133.45" height="67.17"/>
		<path class="st1" d="M171.11,85.95v59.95H44.89V85.95H171.11 M178.34,78.73H37.66v74.39h140.67V78.73L178.34,78.73z"/>
	</g>
</g>
</svg>
