<?xml version="1.0" encoding="utf-8"?>
<!-- Generator: Adobe Illustrator 22.0.1, SVG Export Plug-In . SVG Version: 6.00 Build 0)  -->
<svg version="1.1" id="Layer_1" xmlns="http://www.w3.org/2000/svg" xmlns:xlink="http://www.w3.org/1999/xlink" x="0px" y="0px"
	 viewBox="0 0 817.4 1987.1" style="enable-background:new 0 0 817.4 1987.1;" xml:space="preserve">
<style type="text/css">
	.st0{fill:none;}
	.st1{fill:#A33122;}
	.st2{fill:#A35E51;}
	.st3{fill:#FAF18A;}
	.st4{fill:#45B549;}
	.st5{fill:#384DA0;}
	.st6{fill:#535BA7;}
	.st7{fill:#109B49;}
	.st8{fill:#F7EB24;}
	.st9{fill:url(#SVGID_2_);}
</style>
<pattern  y="1937.6" width="2242.9" height="1199.5" patternUnits="userSpaceOnUse" id="SVGID_1_" viewBox="0 -1199.5 2242.9 1199.5" style="overflow:visible;">
	<g>
		<rect y="-1199.5" class="st0" width="2242.9" height="1199.5"/>
		<g>
			<rect y="-1199.5" class="st0" width="2242.9" height="1199.5"/>
			<rect y="-92.3" class="st1" width="280.4" height="92.3"/>
			<rect x="280.4" y="-92.3" class="st2" width="280.4" height="92.3"/>
			<rect x="560.7" y="-92.3" class="st3" width="280.4" height="92.3"/>
			<rect x="841.1" y="-92.3" class="st4" width="280.4" height="92.3"/>
			<rect x="1121.4" y="-92.3" class="st5" width="280.4" height="92.3"/>
			<rect x="1401.8" y="-92.3" class="st6" width="280.4" height="92.3"/>
			<rect x="1682.2" y="-92.3" class="st4" width="280.4" height="92.3"/>
			<rect x="1962.5" y="-92.3" class="st7" width="280.4" height="92.3"/>
			<rect y="-184.5" class="st7" width="280.4" height="92.3"/>
			<rect x="280.4" y="-184.5" class="st3" width="280.4" height="92.3"/>
			<rect x="560.7" y="-184.5" class="st5" width="280.4" height="92.3"/>
			<rect x="841.1" y="-184.5" class="st3" width="280.4" height="92.3"/>
			<rect x="1121.4" y="-184.5" class="st8" width="280.4" height="92.3"/>
			<rect x="1401.8" y="-184.5" class="st3" width="280.4" height="92.3"/>
			<rect x="1682.2" y="-184.5" class="st2" width="280.4" height="92.3"/>
			<rect x="1962.5" y="-184.5" class="st5" width="280.4" height="92.3"/>
			<rect y="-276.8" class="st8" width="280.4" height="92.3"/>
			<rect x="280.4" y="-276.8" class="st2" width="280.4" height="92.3"/>
			<rect x="560.7" y="-276.8" class="st6" width="280.4" height="92.3"/>
			<rect x="841.1" y="-276.8" class="st2" width="280.4" height="92.3"/>
			<rect x="1121.4" y="-276.8" class="st1" width="280.4" height="92.3"/>
			<rect x="1401.8" y="-276.8" class="st4" width="280.4" height="92.3"/>
			<rect x="1682.2" y="-276.8" class="st4" width="280.4" height="92.3"/>
			<rect x="1962.5" y="-276.8" class="st6" width="280.4" height="92.3"/>
			<rect y="-369.1" class="st1" width="280.4" height="92.3"/>
			<rect x="280.4" y="-369.1" class="st4" width="280.4" height="92.3"/>
			<rect x="560.7" y="-369.1" class="st8" width="280.4" height="92.3"/>
			<rect x="841.1" y="-369.1" class="st4" width="280.4" height="92.3"/>
			<rect x="1121.4" y="-369.1" class="st2" width="280.4" height="92.3"/>
			<rect x="1401.8" y="-369.1" class="st8" width="280.4" height="92.3"/>
			<rect x="1682.2" y="-369.1" class="st5" width="280.4" height="92.3"/>
			<rect x="1962.5" y="-369.1" class="st1" width="280.4" height="92.3"/>
			<rect y="-461.4" class="st6" width="280.4" height="92.3"/>
			<rect x="280.4" y="-461.4" class="st2" width="280.4" height="92.3"/>
			<rect x="560.7" y="-461.4" class="st5" width="280.4" height="92.3"/>
			<rect x="841.1" y="-461.4" class="st6" width="280.4" height="92.3"/>
			<rect x="1121.4" y="-461.4" class="st8" width="280.4" height="92.3"/>
			<rect x="1401.8" y="-461.4" class="st3" width="280.4" height="92.3"/>
			<rect x="1682.2" y="-461.4" class="st8" width="280.4" height="92.3"/>
			<rect x="1962.5" y="-461.4" class="st3" width="280.4" height="92.3"/>
			<rect y="-553.6" class="st3" width="280.4" height="92.3"/>
			<rect x="280.4" y="-553.6" class="st6" width="280.4" height="92.3"/>
			<rect x="560.7" y="-553.6" class="st3" width="280.4" height="92.3"/>
			<rect x="841.1" y="-553.6" class="st1" width="280.4" height="92.3"/>
			<rect x="1121.4" y="-553.6" class="st5" width="280.4" height="92.3"/>
			<rect x="1401.8" y="-553.6" class="st1" width="280.4" height="92.3"/>
			<rect x="1682.2" y="-553.6" class="st3" width="280.4" height="92.3"/>
			<rect x="1962.5" y="-553.6" class="st7" width="280.4" height="92.3"/>
			<rect y="-645.9" class="st1" width="280.4" height="92.3"/>
			<rect x="280.4" y="-645.9" class="st5" width="280.4" height="92.3"/>
			<rect x="560.7" y="-645.9" class="st2" width="280.4" height="92.3"/>
			<rect x="841.1" y="-645.9" class="st6" width="280.4" height="92.3"/>
			<rect x="1121.4" y="-645.9" class="st8" width="280.4" height="92.3"/>
			<rect x="1401.8" y="-645.9" class="st4" width="280.4" height="92.3"/>
			<rect x="1682.2" y="-645.9" class="st5" width="280.4" height="92.3"/>
			<rect x="1962.5" y="-645.9" class="st6" width="280.4" height="92.3"/>
			<rect y="-738.2" class="st2" width="280.4" height="92.3"/>
			<rect x="280.4" y="-738.2" class="st7" width="280.4" height="92.3"/>
			<rect x="560.7" y="-738.2" class="st5" width="280.4" height="92.3"/>
			<rect x="841.1" y="-738.2" class="st2" width="280.4" height="92.3"/>
			<rect x="1121.4" y="-738.2" class="st4" width="280.4" height="92.3"/>
			<rect x="1401.8" y="-738.2" class="st2" width="280.4" height="92.3"/>
			<rect x="1682.2" y="-738.2" class="st1" width="280.4" height="92.3"/>
			<rect x="1962.5" y="-738.2" class="st2" width="280.4" height="92.3"/>
			<rect y="-830.4" class="st5" width="280.4" height="92.3"/>
			<rect x="280.4" y="-830.4" class="st3" width="280.4" height="92.3"/>
			<rect x="560.7" y="-830.4" class="st1" width="280.4" height="92.3"/>
			<rect x="841.1" y="-830.4" class="st5" width="280.4" height="92.3"/>
			<rect x="1121.4" y="-830.4" class="st6" width="280.4" height="92.3"/>
			<rect x="1401.8" y="-830.4" class="st5" width="280.4" height="92.3"/>
			<rect x="1682.2" y="-830.4" class="st6" width="280.4" height="92.3"/>
			<rect x="1962.5" y="-830.4" class="st7" width="280.4" height="92.3"/>
			<rect y="-922.7" class="st8" width="280.4" height="92.3"/>
			<rect x="280.4" y="-922.7" class="st1" width="280.4" height="92.3"/>
			<rect x="560.7" y="-922.7" class="st5" width="280.4" height="92.3"/>
			<rect x="841.1" y="-922.7" class="st4" width="280.4" height="92.3"/>
			<rect x="1121.4" y="-922.7" class="st8" width="280.4" height="92.3"/>
			<rect x="1401.8" y="-922.7" class="st7" width="280.4" height="92.3"/>
			<rect x="1682.2" y="-922.7" class="st4" width="280.4" height="92.3"/>
			<rect x="1962.5" y="-922.7" class="st1" width="280.4" height="92.3"/>
			<rect y="-1015" class="st5" width="280.4" height="92.3"/>
			<rect x="280.4" y="-1015" class="st2" width="280.4" height="92.3"/>
			<rect x="560.7" y="-1015" class="st4" width="280.4" height="92.3"/>
			<rect x="841.1" y="-1015" class="st8" width="280.4" height="92.3"/>
			<rect x="1121.4" y="-1015" class="st7" width="280.4" height="92.3"/>
			<rect x="1401.8" y="-1015" class="st1" width="280.4" height="92.3"/>
			<rect x="1682.2" y="-1015" class="st7" width="280.4" height="92.3"/>
			<rect x="1962.5" y="-1015" class="st6" width="280.4" height="92.3"/>
			<rect y="-1107.3" class="st1" width="280.4" height="92.3"/>
			<rect x="280.4" y="-1107.3" class="st8" width="280.4" height="92.3"/>
			<rect x="560.7" y="-1107.3" class="st5" width="280.4" height="92.3"/>
			<rect x="841.1" y="-1107.3" class="st6" width="280.4" height="92.3"/>
			<rect x="1121.4" y="-1107.3" class="st8" width="280.4" height="92.3"/>
			<rect x="1401.8" y="-1107.3" class="st3" width="280.4" height="92.3"/>
			<rect x="1682.2" y="-1107.3" class="st1" width="280.4" height="92.3"/>
			<rect x="1962.5" y="-1107.3" class="st7" width="280.4" height="92.3"/>
			<rect y="-1199.5" class="st4" width="280.4" height="92.3"/>
			<rect x="280.4" y="-1199.5" class="st2" width="280.4" height="92.3"/>
			<rect x="560.7" y="-1199.5" class="st7" width="280.4" height="92.3"/>
			<rect x="841.1" y="-1199.5" class="st5" width="280.4" height="92.3"/>
			<rect x="1121.4" y="-1199.5" class="st1" width="280.4" height="92.3"/>
			<rect x="1401.8" y="-1199.5" class="st2" width="280.4" height="92.3"/>
			<rect x="1682.2" y="-1199.5" class="st4" width="280.4" height="92.3"/>
			<rect x="1962.5" y="-1199.5" class="st5" width="280.4" height="92.3"/>
		</g>
	</g>
</pattern>
<pattern  id="SVGID_2_" xlink:href="#SVGID_1_" patternTransform="matrix(1 0 0 -1.0256 -2003.3435 -22251.3828)">
</pattern>
<rect y="6.7" class="st9" width="826.4" height="1980.4"/>
</svg>
