<?xml version="1.0" encoding="utf-8"?>
<!-- Generator: Adobe Illustrator 22.0.1, SVG Export Plug-In . SVG Version: 6.00 Build 0)  -->
<svg version="1.1" id="Layer_1" xmlns="http://www.w3.org/2000/svg" xmlns:xlink="http://www.w3.org/1999/xlink" x="0px" y="0px"
	 viewBox="0 0 820.4 1984.7" style="enable-background:new 0 0 820.4 1984.7;" xml:space="preserve">
<style type="text/css">
	.st0{fill:none;}
	.st1{fill:#46B549;}
	.st2{fill:#394EA0;}
	.st3{fill:#535DA8;}
	.st4{fill:#FAF28B;}
	.st5{fill:#F6EC23;}
	.st6{fill:#A45F52;}
	.st7{fill:#A43223;}
	.st8{fill:#139B49;}
	.st9{fill:url(#SVGID_14_);}
	.st10{fill:url(#SVGID_15_);}
	.st11{fill:url(#SVGID_16_);}
	.st12{fill:url(#SVGID_17_);}
	.st13{fill:url(#SVGID_18_);}
	.st14{fill:url(#SVGID_19_);}
	.st15{fill:url(#SVGID_20_);}
	.st16{fill:url(#SVGID_21_);}
	.st17{fill:url(#SVGID_22_);}
	.st18{fill:url(#SVGID_23_);}
	.st19{fill:url(#SVGID_24_);}
	.st20{fill:url(#SVGID_25_);}
	.st21{fill:url(#SVGID_26_);}
</style>
<pattern  x="302" y="866.5" width="821.9" height="879.1" patternUnits="userSpaceOnUse" id="SVGID_1_" viewBox="0 -879.1 821.9 879.1" style="overflow:visible;">
	<g>
		<rect y="-879.1" class="st0" width="821.9" height="879.1"/>
		<g>
			<rect y="-879.1" class="st0" width="821.9" height="879.1"/>
			<rect y="-67.6" class="st1" width="205.5" height="67.6"/>
			<rect x="205.5" y="-67.6" class="st2" width="205.5" height="67.6"/>
			<rect x="410.9" y="-67.6" class="st3" width="205.5" height="67.6"/>
			<rect x="616.4" y="-67.6" class="st1" width="205.5" height="67.6"/>
			<rect y="-135.2" class="st4" width="205.5" height="67.6"/>
			<rect x="205.5" y="-135.2" class="st5" width="205.5" height="67.6"/>
			<rect x="410.9" y="-135.2" class="st4" width="205.5" height="67.6"/>
			<rect x="616.4" y="-135.2" class="st6" width="205.5" height="67.6"/>
			<rect y="-202.9" class="st6" width="205.5" height="67.6"/>
			<rect x="205.5" y="-202.9" class="st7" width="205.5" height="67.6"/>
			<rect x="410.9" y="-202.9" class="st1" width="205.5" height="67.6"/>
			<rect x="616.4" y="-202.9" class="st1" width="205.5" height="67.6"/>
			<rect y="-270.5" class="st1" width="205.5" height="67.6"/>
			<rect x="205.5" y="-270.5" class="st6" width="205.5" height="67.6"/>
			<rect x="410.9" y="-270.5" class="st5" width="205.5" height="67.6"/>
			<rect x="616.4" y="-270.5" class="st2" width="205.5" height="67.6"/>
			<rect y="-338.1" class="st3" width="205.5" height="67.6"/>
			<rect x="205.5" y="-338.1" class="st5" width="205.5" height="67.6"/>
			<rect x="410.9" y="-338.1" class="st4" width="205.5" height="67.6"/>
			<rect x="616.4" y="-338.1" class="st5" width="205.5" height="67.6"/>
			<rect y="-405.7" class="st7" width="205.5" height="67.6"/>
			<rect x="205.5" y="-405.7" class="st2" width="205.5" height="67.6"/>
			<rect x="410.9" y="-405.7" class="st7" width="205.5" height="67.6"/>
			<rect x="616.4" y="-405.7" class="st4" width="205.5" height="67.6"/>
			<rect y="-473.4" class="st3" width="205.5" height="67.6"/>
			<rect x="205.5" y="-473.4" class="st5" width="205.5" height="67.6"/>
			<rect x="410.9" y="-473.4" class="st1" width="205.5" height="67.6"/>
			<rect x="616.4" y="-473.4" class="st2" width="205.5" height="67.6"/>
			<rect y="-541" class="st6" width="205.5" height="67.6"/>
			<rect x="205.5" y="-541" class="st1" width="205.5" height="67.6"/>
			<rect x="410.9" y="-541" class="st6" width="205.5" height="67.6"/>
			<rect x="616.4" y="-541" class="st7" width="205.5" height="67.6"/>
			<rect y="-608.6" class="st2" width="205.5" height="67.6"/>
			<rect x="205.5" y="-608.6" class="st3" width="205.5" height="67.6"/>
			<rect x="410.9" y="-608.6" class="st2" width="205.5" height="67.6"/>
			<rect x="616.4" y="-608.6" class="st3" width="205.5" height="67.6"/>
			<rect y="-676.2" class="st1" width="205.5" height="67.6"/>
			<rect x="205.5" y="-676.2" class="st5" width="205.5" height="67.6"/>
			<rect x="410.9" y="-676.2" class="st8" width="205.5" height="67.6"/>
			<rect x="616.4" y="-676.2" class="st1" width="205.5" height="67.6"/>
			<rect y="-743.8" class="st5" width="205.5" height="67.6"/>
			<rect x="205.5" y="-743.8" class="st8" width="205.5" height="67.6"/>
			<rect x="410.9" y="-743.8" class="st7" width="205.5" height="67.6"/>
			<rect x="616.4" y="-743.8" class="st8" width="205.5" height="67.6"/>
			<rect y="-811.5" class="st3" width="205.5" height="67.6"/>
			<rect x="205.5" y="-811.5" class="st5" width="205.5" height="67.6"/>
			<rect x="410.9" y="-811.5" class="st4" width="205.5" height="67.6"/>
			<rect x="616.4" y="-811.5" class="st7" width="205.5" height="67.6"/>
			<rect y="-879.1" class="st2" width="205.5" height="67.6"/>
			<rect x="205.5" y="-879.1" class="st7" width="205.5" height="67.6"/>
			<rect x="410.9" y="-879.1" class="st6" width="205.5" height="67.6"/>
			<rect x="616.4" y="-879.1" class="st1" width="205.5" height="67.6"/>
		</g>
	</g>
</pattern>
<pattern  id="SVGID_14_" xlink:href="#SVGID_1_" patternTransform="matrix(0.9945 0 0 -1.019 1861.9601 -17726.5977)">
</pattern>
<path class="st9" d="M26,36.7H11.5c-6.6,0-12-5.4-12-12V11.2c0-6.6,5.4-12,12-12H26c6.6,0,12,5.4,12,12v13.5
	C38,31.3,32.6,36.7,26,36.7z"/>
<pattern  id="SVGID_15_" xlink:href="#SVGID_1_" patternTransform="matrix(0.9945 0 0 -1.019 1861.9601 -17726.5977)">
</pattern>
<path class="st10" d="M109.3,36.7H94.8c-6.6,0-12-5.4-12-12V11.2c0-6.6,5.4-12,12-12h14.5c6.6,0,12,5.4,12,12v13.5
	C121.3,31.3,115.9,36.7,109.3,36.7z"/>
<pattern  id="SVGID_16_" xlink:href="#SVGID_1_" patternTransform="matrix(0.9945 0 0 -1.019 1861.9601 -17726.5977)">
</pattern>
<path class="st11" d="M160,36.7h-14.5c-6.6,0-12-5.4-12-12V11.2c0-6.6,5.4-12,12-12H160c6.6,0,12,5.4,12,12v13.5
	C172,31.3,166.6,36.7,160,36.7z"/>
<pattern  id="SVGID_17_" xlink:href="#SVGID_1_" patternTransform="matrix(0.9945 0 0 -1.019 1861.9601 -17726.5977)">
</pattern>
<path class="st12" d="M236.7,36.7h-14.5c-6.6,0-12-5.4-12-12V11.2c0-6.6,5.4-12,12-12h14.5c6.6,0,12,5.4,12,12v13.5
	C248.7,31.3,243.3,36.7,236.7,36.7z"/>
<pattern  id="SVGID_18_" xlink:href="#SVGID_1_" patternTransform="matrix(0.9945 0 0 -1.019 1861.9601 -17726.5977)">
</pattern>
<path class="st13" d="M363,36.7h-14.5c-6.6,0-12-5.4-12-12V11.2c0-6.6,5.4-12,12-12H363c6.6,0,12,5.4,12,12v13.5
	C375,31.3,369.6,36.7,363,36.7z"/>
<pattern  id="SVGID_19_" xlink:href="#SVGID_1_" patternTransform="matrix(0.9945 0 0 -1.019 1861.9601 -17726.5977)">
</pattern>
<path class="st14" d="M439.7,36.7h-14.5c-6.6,0-12-5.4-12-12V11.2c0-6.6,5.4-12,12-12h14.5c6.6,0,12,5.4,12,12v13.5
	C451.7,31.3,446.3,36.7,439.7,36.7z"/>
<pattern  id="SVGID_20_" xlink:href="#SVGID_1_" patternTransform="matrix(0.9945 0 0 -1.019 1861.9601 -17726.5977)">
</pattern>
<path class="st15" d="M519.7,36.7h-14.5c-6.6,0-12-5.4-12-12V11.2c0-6.6,5.4-12,12-12h14.5c6.6,0,12,5.4,12,12v13.5
	C531.7,31.3,526.3,36.7,519.7,36.7z"/>
<pattern  id="SVGID_21_" xlink:href="#SVGID_1_" patternTransform="matrix(0.9945 0 0 -1.019 1861.9601 -17726.5977)">
</pattern>
<path class="st16" d="M567.6,36.7h-14.5c-6.6,0-12-5.4-12-12V11.2c0-6.6,5.4-12,12-12h14.5c6.6,0,12,5.4,12,12v13.5
	C579.6,31.3,574.2,36.7,567.6,36.7z"/>
<pattern  id="SVGID_22_" xlink:href="#SVGID_1_" patternTransform="matrix(0.9945 0 0 -1.019 1861.9601 -17726.5977)">
</pattern>
<path class="st17" d="M644.2,36.7h-14.5c-6.6,0-12-5.4-12-12V11.2c0-6.6,5.4-12,12-12h14.5c6.6,0,12,5.4,12,12v13.5
	C656.2,31.3,650.8,36.7,644.2,36.7z"/>
<pattern  id="SVGID_23_" xlink:href="#SVGID_1_" patternTransform="matrix(0.9945 0 0 -1.019 1861.9601 -17726.5977)">
</pattern>
<path class="st18" d="M724.2,36.7h-14.5c-6.6,0-12-5.4-12-12V11.2c0-6.6,5.4-12,12-12h14.5c6.6,0,12,5.4,12,12v13.5
	C736.2,31.3,730.8,36.7,724.2,36.7z"/>
<pattern  id="SVGID_24_" xlink:href="#SVGID_1_" patternTransform="matrix(0.9945 0 0 -1.019 1861.9601 -17726.5977)">
</pattern>
<path class="st19" d="M772.2,36.7h-14.5c-6.6,0-12-5.4-12-12V11.2c0-6.6,5.4-12,12-12h14.5c6.6,0,12,5.4,12,12v13.5
	C784.2,31.3,778.8,36.7,772.2,36.7z"/>
<pattern  id="SVGID_25_" xlink:href="#SVGID_1_" patternTransform="matrix(0.9945 0 0 -1.019 1861.9601 -17726.5977)">
</pattern>
<path class="st20" d="M316.7,36.7h-14.5c-6.6,0-12-5.4-12-12V11.2c0-6.6,5.4-12,12-12h14.5c6.6,0,12,5.4,12,12v13.5
	C328.7,31.3,323.3,36.7,316.7,36.7z"/>
<pattern  id="SVGID_26_" xlink:href="#SVGID_1_" patternTransform="matrix(0.9945 0 0 -1.019 1861.9601 -17726.5977)">
</pattern>
<rect x="-0.5" y="18" class="st21" width="821.9" height="1967.6"/>
</svg>
