<?xml version="1.0" encoding="utf-8"?>
<!-- Generator: Adobe Illustrator 22.0.1, SVG Export Plug-In . SVG Version: 6.00 Build 0)  -->
<svg version="1.1" id="Layer_1" xmlns="http://www.w3.org/2000/svg" xmlns:xlink="http://www.w3.org/1999/xlink" x="0px" y="0px"
	 viewBox="0 0 1080 1746.1" style="enable-background:new 0 0 1080 1746.1;" xml:space="preserve">
<style type="text/css">
	.st0{fill:none;}
	.st1{fill:#A33122;}
	.st2{fill:#A45E51;}
	.st3{fill:#FAF28B;}
	.st4{fill:#46B649;}
	.st5{fill:#384DA1;}
	.st6{fill:#535BA8;}
	.st7{fill:#109C49;}
	.st8{fill:#F7EC26;}
	.st9{fill:url(#SVGID_1_);}
</style>
<pattern  x="-14" y="318" width="931.7" height="996.6" patternUnits="userSpaceOnUse" id="New_Pattern_3" viewBox="0 -1015.7 931.7 996.6" style="overflow:visible;">
	<g>
		<rect y="-1015.7" class="st0" width="931.7" height="996.6"/>
		<g>
			<rect y="-268.3" class="st1" width="116.5" height="38.3"/>
			<rect x="116.5" y="-268.3" class="st2" width="116.5" height="38.3"/>
			<rect x="232.9" y="-268.3" class="st3" width="116.5" height="38.3"/>
			<rect x="349.4" y="-268.3" class="st4" width="116.5" height="38.3"/>
			<rect x="465.8" y="-268.3" class="st5" width="116.5" height="38.3"/>
			<rect x="582.3" y="-268.3" class="st6" width="116.5" height="38.3"/>
			<rect x="698.8" y="-268.3" class="st4" width="116.5" height="38.3"/>
			<rect x="815.2" y="-268.3" class="st7" width="116.5" height="38.3"/>
			<rect y="-230" class="st7" width="116.5" height="38.3"/>
			<rect x="116.5" y="-230" class="st3" width="116.5" height="38.3"/>
			<rect x="232.9" y="-230" class="st5" width="116.5" height="38.3"/>
			<rect x="349.4" y="-230" class="st3" width="116.5" height="38.3"/>
			<rect x="465.8" y="-230" class="st8" width="116.5" height="38.3"/>
			<rect x="582.3" y="-230" class="st3" width="116.5" height="38.3"/>
			<rect x="698.8" y="-230" class="st2" width="116.5" height="38.3"/>
			<rect x="815.2" y="-230" class="st5" width="116.5" height="38.3"/>
			<rect y="-191.6" class="st8" width="116.5" height="38.3"/>
			<rect x="116.5" y="-191.6" class="st2" width="116.5" height="38.3"/>
			<rect x="232.9" y="-191.6" class="st1" width="116.5" height="38.3"/>
			<rect x="349.4" y="-191.6" class="st2" width="116.5" height="38.3"/>
			<rect x="465.8" y="-191.6" class="st1" width="116.5" height="38.3"/>
			<rect x="582.3" y="-191.6" class="st4" width="116.5" height="38.3"/>
			<rect x="698.8" y="-191.6" class="st4" width="116.5" height="38.3"/>
			<rect x="815.2" y="-191.6" class="st6" width="116.5" height="38.3"/>
			<rect y="-153.3" class="st1" width="116.5" height="38.3"/>
			<rect x="116.5" y="-153.3" class="st4" width="116.5" height="38.3"/>
			<rect x="232.9" y="-153.3" class="st8" width="116.5" height="38.3"/>
			<rect x="349.4" y="-153.3" class="st4" width="116.5" height="38.3"/>
			<rect x="465.8" y="-153.3" class="st2" width="116.5" height="38.3"/>
			<rect x="582.3" y="-153.3" class="st8" width="116.5" height="38.3"/>
			<rect x="698.8" y="-153.3" class="st5" width="116.5" height="38.3"/>
			<rect x="815.2" y="-153.3" class="st1" width="116.5" height="38.3"/>
			<rect y="-115" class="st6" width="116.5" height="38.3"/>
			<rect x="116.5" y="-115" class="st2" width="116.5" height="38.3"/>
			<rect x="232.9" y="-115" class="st5" width="116.5" height="38.3"/>
			<rect x="349.4" y="-115" class="st6" width="116.5" height="38.3"/>
			<rect x="465.8" y="-115" class="st8" width="116.5" height="38.3"/>
			<rect x="582.3" y="-115" class="st3" width="116.5" height="38.3"/>
			<rect x="698.8" y="-115" class="st8" width="116.5" height="38.3"/>
			<rect x="815.2" y="-115" class="st3" width="116.5" height="38.3"/>
			<rect y="-76.7" class="st3" width="116.5" height="38.3"/>
			<rect x="116.5" y="-76.7" class="st6" width="116.5" height="38.3"/>
			<rect x="232.9" y="-76.7" class="st3" width="116.5" height="38.3"/>
			<rect x="349.4" y="-76.7" class="st1" width="116.5" height="38.3"/>
			<rect x="465.8" y="-76.7" class="st5" width="116.5" height="38.3"/>
			<rect x="582.3" y="-76.7" class="st1" width="116.5" height="38.3"/>
			<rect x="698.8" y="-76.7" class="st3" width="116.5" height="38.3"/>
			<rect x="815.2" y="-76.7" class="st7" width="116.5" height="38.3"/>
			<rect y="-38.3" class="st1" width="116.5" height="38.3"/>
			<rect x="116.5" y="-38.3" class="st5" width="116.5" height="38.3"/>
			<rect x="232.9" y="-38.3" class="st2" width="116.5" height="38.3"/>
			<rect x="349.4" y="-38.3" class="st6" width="116.5" height="38.3"/>
			<rect x="465.8" y="-38.3" class="st8" width="116.5" height="38.3"/>
			<rect x="582.3" y="-38.3" class="st4" width="116.5" height="38.3"/>
			<rect x="698.8" y="-38.3" class="st5" width="116.5" height="38.3"/>
			<rect x="815.2" y="-38.3" class="st6" width="116.5" height="38.3"/>
			<path class="st2" d="M732.8-57.4c3.2,0,3.2-5,0-5C729.6-62.4,729.6-57.4,732.8-57.4L732.8-57.4z"/>
		</g>
		<g>
			<rect y="-766.6" class="st1" width="116.5" height="38.3"/>
			<rect x="116.5" y="-766.6" class="st2" width="116.5" height="38.3"/>
			<rect x="232.9" y="-766.6" class="st3" width="116.5" height="38.3"/>
			<rect x="349.4" y="-766.6" class="st4" width="116.5" height="38.3"/>
			<rect x="465.8" y="-766.6" class="st5" width="116.5" height="38.3"/>
			<rect x="582.3" y="-766.6" class="st6" width="116.5" height="38.3"/>
			<rect x="698.8" y="-766.6" class="st4" width="116.5" height="38.3"/>
			<rect x="815.2" y="-766.6" class="st7" width="116.5" height="38.3"/>
			<rect y="-728.3" class="st7" width="116.5" height="38.3"/>
			<rect x="116.5" y="-728.3" class="st3" width="116.5" height="38.3"/>
			<rect x="232.9" y="-728.3" class="st5" width="116.5" height="38.3"/>
			<rect x="349.4" y="-728.3" class="st3" width="116.5" height="38.3"/>
			<rect x="465.8" y="-728.3" class="st8" width="116.5" height="38.3"/>
			<rect x="582.3" y="-728.3" class="st3" width="116.5" height="38.3"/>
			<rect x="698.8" y="-728.3" class="st2" width="116.5" height="38.3"/>
			<rect x="815.2" y="-728.3" class="st5" width="116.5" height="38.3"/>
			<rect y="-689.9" class="st8" width="116.5" height="38.3"/>
			<rect x="116.5" y="-689.9" class="st2" width="116.5" height="38.3"/>
			<rect x="232.9" y="-689.9" class="st1" width="116.5" height="38.3"/>
			<rect x="349.4" y="-689.9" class="st2" width="116.5" height="38.3"/>
			<rect x="465.8" y="-689.9" class="st1" width="116.5" height="38.3"/>
			<rect x="582.3" y="-689.9" class="st4" width="116.5" height="38.3"/>
			<rect x="698.8" y="-689.9" class="st4" width="116.5" height="38.3"/>
			<rect x="815.2" y="-689.9" class="st6" width="116.5" height="38.3"/>
			<rect y="-651.6" class="st1" width="116.5" height="38.3"/>
			<rect x="116.5" y="-651.6" class="st4" width="116.5" height="38.3"/>
			<rect x="232.9" y="-651.6" class="st8" width="116.5" height="38.3"/>
			<rect x="349.4" y="-651.6" class="st4" width="116.5" height="38.3"/>
			<rect x="465.8" y="-651.6" class="st2" width="116.5" height="38.3"/>
			<rect x="582.3" y="-651.6" class="st8" width="116.5" height="38.3"/>
			<rect x="698.8" y="-651.6" class="st5" width="116.5" height="38.3"/>
			<rect x="815.2" y="-651.6" class="st1" width="116.5" height="38.3"/>
			<rect y="-613.3" class="st6" width="116.5" height="38.3"/>
			<rect x="116.5" y="-613.3" class="st2" width="116.5" height="38.3"/>
			<rect x="232.9" y="-613.3" class="st5" width="116.5" height="38.3"/>
			<rect x="349.4" y="-613.3" class="st6" width="116.5" height="38.3"/>
			<rect x="465.8" y="-613.3" class="st8" width="116.5" height="38.3"/>
			<rect x="582.3" y="-613.3" class="st3" width="116.5" height="38.3"/>
			<rect x="698.8" y="-613.3" class="st8" width="116.5" height="38.3"/>
			<rect x="815.2" y="-613.3" class="st3" width="116.5" height="38.3"/>
			<rect y="-574.9" class="st3" width="116.5" height="38.3"/>
			<rect x="116.5" y="-574.9" class="st6" width="116.5" height="38.3"/>
			<rect x="232.9" y="-574.9" class="st3" width="116.5" height="38.3"/>
			<rect x="349.4" y="-574.9" class="st1" width="116.5" height="38.3"/>
			<rect x="465.8" y="-574.9" class="st5" width="116.5" height="38.3"/>
			<rect x="582.3" y="-574.9" class="st1" width="116.5" height="38.3"/>
			<rect x="698.8" y="-574.9" class="st3" width="116.5" height="38.3"/>
			<rect x="815.2" y="-574.9" class="st7" width="116.5" height="38.3"/>
			<rect y="-536.6" class="st1" width="116.5" height="38.3"/>
			<rect x="116.5" y="-536.6" class="st5" width="116.5" height="38.3"/>
			<rect x="232.9" y="-536.6" class="st2" width="116.5" height="38.3"/>
			<rect x="349.4" y="-536.6" class="st6" width="116.5" height="38.3"/>
			<rect x="465.8" y="-536.6" class="st8" width="116.5" height="38.3"/>
			<rect x="582.3" y="-536.6" class="st4" width="116.5" height="38.3"/>
			<rect x="698.8" y="-536.6" class="st5" width="116.5" height="38.3"/>
			<rect x="815.2" y="-536.6" class="st6" width="116.5" height="38.3"/>
			<rect y="-498.3" class="st2" width="116.5" height="38.3"/>
			<rect x="116.5" y="-498.3" class="st7" width="116.5" height="38.3"/>
			<rect x="232.9" y="-498.3" class="st5" width="116.5" height="38.3"/>
			<rect x="349.4" y="-498.3" class="st2" width="116.5" height="38.3"/>
			<rect x="465.8" y="-498.3" class="st4" width="116.5" height="38.3"/>
			<rect x="582.3" y="-498.3" class="st2" width="116.5" height="38.3"/>
			<rect x="698.8" y="-498.3" class="st1" width="116.5" height="38.3"/>
			<rect x="815.2" y="-498.3" class="st2" width="116.5" height="38.3"/>
			<rect y="-460" class="st5" width="116.5" height="38.3"/>
			<rect x="116.5" y="-460" class="st3" width="116.5" height="38.3"/>
			<rect x="232.9" y="-460" class="st1" width="116.5" height="38.3"/>
			<rect x="349.4" y="-460" class="st5" width="116.5" height="38.3"/>
			<rect x="465.8" y="-460" class="st6" width="116.5" height="38.3"/>
			<rect x="582.3" y="-460" class="st5" width="116.5" height="38.3"/>
			<rect x="698.8" y="-460" class="st6" width="116.5" height="38.3"/>
			<rect x="815.2" y="-460" class="st7" width="116.5" height="38.3"/>
			<rect y="-421.6" class="st8" width="116.5" height="38.3"/>
			<rect x="116.5" y="-421.6" class="st1" width="116.5" height="38.3"/>
			<rect x="232.9" y="-421.6" class="st5" width="116.5" height="38.3"/>
			<rect x="349.4" y="-421.6" class="st4" width="116.5" height="38.3"/>
			<rect x="465.8" y="-421.6" class="st8" width="116.5" height="38.3"/>
			<rect x="582.3" y="-421.6" class="st7" width="116.5" height="38.3"/>
			<rect x="698.8" y="-421.6" class="st4" width="116.5" height="38.3"/>
			<rect x="815.2" y="-421.6" class="st1" width="116.5" height="38.3"/>
			<rect y="-383.3" class="st5" width="116.5" height="38.3"/>
			<rect x="116.5" y="-383.3" class="st2" width="116.5" height="38.3"/>
			<rect x="232.9" y="-383.3" class="st4" width="116.5" height="38.3"/>
			<rect x="349.4" y="-383.3" class="st8" width="116.5" height="38.3"/>
			<rect x="465.8" y="-383.3" class="st7" width="116.5" height="38.3"/>
			<rect x="582.3" y="-383.3" class="st1" width="116.5" height="38.3"/>
			<rect x="698.8" y="-383.3" class="st7" width="116.5" height="38.3"/>
			<rect x="815.2" y="-383.3" class="st6" width="116.5" height="38.3"/>
			<rect y="-345" class="st1" width="116.5" height="38.3"/>
			<rect x="116.5" y="-345" class="st8" width="116.5" height="38.3"/>
			<rect x="232.9" y="-345" class="st5" width="116.5" height="38.3"/>
			<rect x="349.4" y="-345" class="st6" width="116.5" height="38.3"/>
			<rect x="465.8" y="-345" class="st8" width="116.5" height="38.3"/>
			<rect x="582.3" y="-345" class="st3" width="116.5" height="38.3"/>
			<rect x="698.8" y="-345" class="st1" width="116.5" height="38.3"/>
			<rect x="815.2" y="-345" class="st7" width="116.5" height="38.3"/>
			<rect y="-306.6" class="st4" width="116.5" height="38.3"/>
			<rect x="116.5" y="-306.6" class="st2" width="116.5" height="38.3"/>
			<rect x="232.9" y="-306.6" class="st7" width="116.5" height="38.3"/>
			<rect x="349.4" y="-306.6" class="st5" width="116.5" height="38.3"/>
			<rect x="465.8" y="-306.6" class="st1" width="116.5" height="38.3"/>
			<rect x="582.3" y="-306.6" class="st2" width="116.5" height="38.3"/>
			<rect x="698.8" y="-306.6" class="st4" width="116.5" height="38.3"/>
			<rect x="815.2" y="-306.6" class="st5" width="116.5" height="38.3"/>
			<path class="st2" d="M732.8-555.7c3.2,0,3.2-5,0-5C729.6-560.7,729.6-555.7,732.8-555.7L732.8-555.7z"/>
		</g>
		<g>
			<rect y="-1034.9" class="st1" width="116.5" height="38.3"/>
			<rect x="116.5" y="-1034.9" class="st5" width="116.5" height="38.3"/>
			<rect x="232.9" y="-1034.9" class="st2" width="116.5" height="38.3"/>
			<rect x="349.4" y="-1034.9" class="st6" width="116.5" height="38.3"/>
			<rect x="465.8" y="-1034.9" class="st8" width="116.5" height="38.3"/>
			<rect x="582.3" y="-1034.9" class="st4" width="116.5" height="38.3"/>
			<rect x="698.8" y="-1034.9" class="st5" width="116.5" height="38.3"/>
			<rect x="815.2" y="-1034.9" class="st6" width="116.5" height="38.3"/>
			<rect y="-996.6" class="st2" width="116.5" height="38.3"/>
			<rect x="116.5" y="-996.6" class="st7" width="116.5" height="38.3"/>
			<rect x="232.9" y="-996.6" class="st5" width="116.5" height="38.3"/>
			<rect x="349.4" y="-996.6" class="st2" width="116.5" height="38.3"/>
			<rect x="465.8" y="-996.6" class="st4" width="116.5" height="38.3"/>
			<rect x="582.3" y="-996.6" class="st2" width="116.5" height="38.3"/>
			<rect x="698.8" y="-996.6" class="st1" width="116.5" height="38.3"/>
			<rect x="815.2" y="-996.6" class="st2" width="116.5" height="38.3"/>
			<rect y="-958.2" class="st5" width="116.5" height="38.3"/>
			<rect x="116.5" y="-958.2" class="st3" width="116.5" height="38.3"/>
			<rect x="232.9" y="-958.2" class="st1" width="116.5" height="38.3"/>
			<rect x="349.4" y="-958.2" class="st5" width="116.5" height="38.3"/>
			<rect x="465.8" y="-958.2" class="st6" width="116.5" height="38.3"/>
			<rect x="582.3" y="-958.2" class="st5" width="116.5" height="38.3"/>
			<rect x="698.8" y="-958.2" class="st6" width="116.5" height="38.3"/>
			<rect x="815.2" y="-958.2" class="st7" width="116.5" height="38.3"/>
			<rect y="-919.9" class="st8" width="116.5" height="38.3"/>
			<rect x="116.5" y="-919.9" class="st1" width="116.5" height="38.3"/>
			<rect x="232.9" y="-919.9" class="st5" width="116.5" height="38.3"/>
			<rect x="349.4" y="-919.9" class="st4" width="116.5" height="38.3"/>
			<rect x="465.8" y="-919.9" class="st8" width="116.5" height="38.3"/>
			<rect x="582.3" y="-919.9" class="st7" width="116.5" height="38.3"/>
			<rect x="698.8" y="-919.9" class="st4" width="116.5" height="38.3"/>
			<rect x="815.2" y="-919.9" class="st1" width="116.5" height="38.3"/>
			<rect y="-881.6" class="st5" width="116.5" height="38.3"/>
			<rect x="116.5" y="-881.6" class="st2" width="116.5" height="38.3"/>
			<rect x="232.9" y="-881.6" class="st4" width="116.5" height="38.3"/>
			<rect x="349.4" y="-881.6" class="st8" width="116.5" height="38.3"/>
			<rect x="465.8" y="-881.6" class="st7" width="116.5" height="38.3"/>
			<rect x="582.3" y="-881.6" class="st1" width="116.5" height="38.3"/>
			<rect x="698.8" y="-881.6" class="st7" width="116.5" height="38.3"/>
			<rect x="815.2" y="-881.6" class="st6" width="116.5" height="38.3"/>
			<rect y="-843.2" class="st1" width="116.5" height="38.3"/>
			<rect x="116.5" y="-843.2" class="st8" width="116.5" height="38.3"/>
			<rect x="232.9" y="-843.2" class="st5" width="116.5" height="38.3"/>
			<rect x="349.4" y="-843.2" class="st6" width="116.5" height="38.3"/>
			<rect x="465.8" y="-843.2" class="st8" width="116.5" height="38.3"/>
			<rect x="582.3" y="-843.2" class="st3" width="116.5" height="38.3"/>
			<rect x="698.8" y="-843.2" class="st1" width="116.5" height="38.3"/>
			<rect x="815.2" y="-843.2" class="st7" width="116.5" height="38.3"/>
			<rect y="-804.9" class="st4" width="116.5" height="38.3"/>
			<rect x="116.5" y="-804.9" class="st2" width="116.5" height="38.3"/>
			<rect x="232.9" y="-804.9" class="st7" width="116.5" height="38.3"/>
			<rect x="349.4" y="-804.9" class="st5" width="116.5" height="38.3"/>
			<rect x="465.8" y="-804.9" class="st1" width="116.5" height="38.3"/>
			<rect x="582.3" y="-804.9" class="st2" width="116.5" height="38.3"/>
			<rect x="698.8" y="-804.9" class="st4" width="116.5" height="38.3"/>
			<rect x="815.2" y="-804.9" class="st5" width="116.5" height="38.3"/>
		</g>
	</g>
</pattern>
<pattern  id="SVGID_1_" xlink:href="#New_Pattern_3" patternTransform="matrix(1 0 0 1 -4154.7969 -684)">
</pattern>
<rect x="294" y="74.8" class="st9" width="426.9" height="1569.2"/>
</svg>
